<svg width="32" height="32" viewBox="0 0 32 32" fill="none" xmlns="http://www.w3.org/2000/svg">
<rect width="32" height="32" rx="5" fill="#DB274E"/>
<path d="M24.625 9.75H21.25V8.625C21.25 7.92881 20.9734 7.26113 20.4812 6.76884C19.9889 6.27656 19.3212 6 18.625 6H14.125C13.4288 6 12.7611 6.27656 12.2688 6.76884C11.7766 7.26113 11.5 7.92881 11.5 8.625V9.75H8.125C7.82663 9.75 7.54048 9.86853 7.3295 10.0795C7.11853 10.2905 7 10.5766 7 10.875C7 11.1734 7.11853 11.4595 7.3295 11.6705C7.54048 11.8815 7.82663 12 8.125 12H8.5V24.75C8.5 25.2473 8.69754 25.7242 9.04917 26.0758C9.40081 26.4275 9.87772 26.625 10.375 26.625H22.375C22.8723 26.625 23.3492 26.4275 23.7008 26.0758C24.0525 25.7242 24.25 25.2473 24.25 24.75V12H24.625C24.9234 12 25.2095 11.8815 25.4205 11.6705C25.6315 11.4595 25.75 11.1734 25.75 10.875C25.75 10.5766 25.6315 10.2905 25.4205 10.0795C25.2095 9.86853 24.9234 9.75 24.625 9.75ZM13.75 8.625C13.75 8.52554 13.7895 8.43016 13.8598 8.35984C13.9302 8.28951 14.0255 8.25 14.125 8.25H18.625C18.7245 8.25 18.8198 8.28951 18.8902 8.35984C18.9605 8.43016 19 8.52554 19 8.625V9.75H13.75V8.625ZM22 24.375H10.75V12H22V24.375ZM15.25 15V21C15.25 21.2984 15.1315 21.5845 14.9205 21.7955C14.7095 22.0065 14.4234 22.125 14.125 22.125C13.8266 22.125 13.5405 22.0065 13.3295 21.7955C13.1185 21.5845 13 21.2984 13 21V15C13 14.7016 13.1185 14.4155 13.3295 14.2045C13.5405 13.9935 13.8266 13.875 14.125 13.875C14.4234 13.875 14.7095 13.9935 14.9205 14.2045C15.1315 14.4155 15.25 14.7016 15.25 15ZM19.75 15V21C19.75 21.2984 19.6315 21.5845 19.4205 21.7955C19.2095 22.0065 18.9234 22.125 18.625 22.125C18.3266 22.125 18.0405 22.0065 17.8295 21.7955C17.6185 21.5845 17.5 21.2984 17.5 21V15C17.5 14.7016 17.6185 14.4155 17.8295 14.2045C18.0405 13.9935 18.3266 13.875 18.625 13.875C18.9234 13.875 19.2095 13.9935 19.4205 14.2045C19.6315 14.4155 19.75 14.7016 19.75 15Z" fill="white"/>
</svg>
